/* XPM */
static char *_b4d101b17804921e71ff6a59f56e848[] = {
/* columns rows colors chars-per-pixel */
"32 32 2 1 ",
"  c #FFE115",
". c None",
/* pixels */
"................................",
"................................",
"..............    .... .........",
"..........         ..  .........",
"........          ..  ..........",
".......     .......   .. .......",
"......    ........    ..  ......",
".....   .........    ...   .....",
"....   .........     ....   ....",
"....   ........      ....   ....",
"...   ........      ......   ...",
"...   .......       ......   ...",
"...  .......        .......  ...",
"..   ......        ........  ...",
"..   .....               ..   ..",
"..   ....               ...   ..",
"..   ...               ....   ..",
"..   ..               .....   ..",
"..   ........        ......  ...",
"...  .......        .......  ...",
"...   ......       .......   ...",
"...   ......      ........   ...",
"....   ....      ........   ....",
"....   ....     .........  .....",
".....   ..     .........   .....",
"......  ..    ........    ......",
"....... ..   .......     .......",
".........   ..         .........",
".........  ..         ..........",
"......... ...      .............",
"................................",
"................................"
};
