/* XPM */
static char *_8de722ea6454da9e555b10369f2a4ac[] = {
/* columns rows colors chars-per-pixel */
"128 128 4 1 ",
"  c #FFE015",
". c #FFE115",
"X c #FFE116",
"o c None",
/* pixels */
"oooooooooooooooooooooooooooooooooooooooooooooooooooooooooooooooooooooooooooooooooooooooooooooooooooooooooooooooooooooooooooooooo",
"oooooooooooooooooooooooooooooooooooooooooooooooooooooooooooooooooooooooooooooooooooooooooooooooooooooooooooooooooooooooooooooooo",
"oooooooooooooooooooooooooooooooooooooooooooooooooooooooooooooooooooooooooooooooooooooooooooooooooooooooooooooooooooooooooooooooo",
"oooooooooooooooooooooooooooooooooooooooooooooooooooooooooooooooooooooooooooooooooooooooooooooooooooooooooooooooooooooooooooooooo",
"oooooooooooooooooooooooooooooooooooooooooooooooooooooooooooooooooooooooooooooooooooooooooooooooooooooooooooooooooooooooooooooooo",
"ooooooooooooooooooooooooooooooooooooooooooooooooooooooooooooooooooooooooooooooooooooooooooooo.oooooooooooooooooooooooooooooooooo",
"oooooooooooooooooooooooooooooooooooooooooooooooooooooooooooooooooooooooooooooooooooooooooooo..oooooooooooooooooooooooooooooooooo",
"ooooooooooooooooooooooooooooooooooooooooooooooooooooooooooooooooooooooooooooooooooooooooooo..ooooooooooooooooooooooooooooooooooo",
"oooooooooooooooooooooooooooooooooooooooooooooooooooooooooooooooooooooooooooooooooooooooooo...ooooooooooooooooooooooooooooooooooo",
"oooooooooooooooooooooooooooooooooooooooooooooooooooooooooo...........oooooooooooooooooooo....ooooooooooooooooooooooooooooooooooo",
"oooooooooooooooooooooooooooooooooooooooooooooooooooo........................oooooooooooo....oooooooooooooooooooooooooooooooooooo",
"oooooooooooooooooooooooooooooooooooooooooooooooo..............................ooooooooo.....oooooooooooooooooooooooooooooooooooo",
"ooooooooooooooooooooooooooooooooooooooooooooo................................ooooooooo......oooooooooooooooooooooooooooooooooooo",
"oooooooooooooooooooooooooooooooooooooooooo..................................ooooooooo......ooooooooooooooooooooooooooooooooooooo",
"oooooooooooooooooooooooooooooooooooooooo...................................ooooooooo.......ooooooooooooooooooooooooooooooooooooo",
"oooooooooooooooooooooooooooooooooooooo....................................ooooooooo........ooooooooooooooooooooooooooooooooooooo",
"oooooooooooooooooooooooooooooooooooo.....................................ooooooooo........oooooooooooooooooooooooooooooooooooooo",
"ooooooooooooooooooooooooooooooooooo.....................................ooooooooo.........oooooooooooooooooooooooooooooooooooooo",
"ooooooooooooooooooooooooooooooooo.............................ooo......ooooooooo..........oooooooooooooooooooooooooooooooooooooo",
"oooooooooooooooooooooooooooooooo......................ooooooooooooooooooooooooo..........ooooooooooooooooooooooooooooooooooooooo",
"oooooooooooooooooooooooooooooo....................oooooooooooooooooooooooooooo...........ooooooo..oooooooooooooooooooooooooooooo",
"ooooooooooooooooooooooooooooo...................ooooooooooooooooooooooooooooo............ooooooo...ooooooooooooooooooooooooooooo",
"oooooooooooooooooooooooooooo.................ooooooooooooooooooooooooooooooo............oooooooo....oooooooooooooooooooooooooooo",
"ooooooooooooooooooooooooooo................oooooooooooooooooooooooooooooooo.............ooooooo......ooooooooooooooooooooooooooo",
"oooooooooooooooooooooooooo...............ooooooooooooooooooooooooooooooooo.............oooooooo.......oooooooooooooooooooooooooo",
"ooooooooooooooooooooooooo...............ooooooooooooooooooooooooooooooooo..............ooooooo.........ooooooooooooooooooooooooo",
"oooooooooooooooooooooooo..............oooooooooooooooooooooooooooooooooo...............ooooooo..........oooooooooooooooooooooooo",
"ooooooooooooooooooooooo..............oooooooooooooooooooooooooooooooooo...............oooooooo...........ooooooooooooooooooooooo",
"oooooooooooooooooooooo.............ooooooooooooooooooooooooooooooooooo................ooooooo.............oooooooooooooooooooooo",
"ooooooooooooooooooooo.............ooooooooooooooooooooooooooooooooooo.................oooooooo.............ooooooooooooooooooooo",
"oooooooooooooooooooo.............ooooooooooooooooooooooooooooooooooo.................oooooooooo.............oooooooooooooooooooo",
"oooooooooooooooooooo............ooooooooooooooooooooooooooooooooooo..................ooooooooooo............oooooooooooooooooooo",
"ooooooooooooooooooo............ooooooooooooooooooooooooooooooooooo...................oooooooooooo............ooooooooooooooooooo",
"oooooooooooooooooo............ooooooooooooooooooooooooooooooooooo...................oooooooooooooo............oooooooooooooooooo",
"ooooooooooooooooo............ooooooooooooooooooooooooooooooooooo....................ooooooooooooooo...........oooooooooooooooooo",
"ooooooooooooooooo............oooooooooooooooooooooooooooooooooo.....................ooooooooooooooo............ooooooooooooooooo",
"oooooooooooooooo............oooooooooooooooooooooooooooooooooo.....................ooooooooooooooooo............oooooooooooooooo",
"oooooooooooooooo...........oooooooooooooooooooooooooooooooooo......................oooooooooooooooooo...........oooooooooooooooo",
"ooooooooooooooo...........oooooooooooooooooooooooooooooooooo.......................ooooooooooooooooooo...........ooooooooooooooo",
"ooooooooooooooo...........ooooooooooooooooooooooooooooooooo.......................oooooooooooooooooooo...........ooooooooooooooo",
"oooooooooooooo...........ooooooooooooooooooooooooooooooooo........................ooooooooooooooooooooo...........oooooooooooooo",
"oooooooooooooo..........ooooooooooooooooooooooooooooooooo.........................ooooooooooooooooooooo...........oooooooooooooo",
"ooooooooooooo...........oooooooooooooooooooooooooooooooo.........................ooooooooooooooooooooooo...........ooooooooooooo",
"ooooooooooooo..........oooooooooooooooooooooooooooooooo..........................oooooooooooooooooooooooo..........ooooooooooooo",
"oooooooooooo...........ooooooooooooooooooooooooooooooo..........................ooooooooooooooooooooooooo..........ooooooooooooo",
"oooooooooooo..........ooooooooooooooooooooooooooooooo...........................oooooooooooooooooooooooooo..........oooooooooooo",
"oooooooooooo..........oooooooooooooooooooooooooooooo............................oooooooooooooooooooooooooo..........oooooooooooo",
"ooooooooooo...........ooooooooooooooooooooooooooooo............................ooooooooooooooooooooooooooo..........oooooooooooo",
"ooooooooooo..........ooooooooooooooooooooooooooooo.............................oooooooooooooooooooooooooooo..........ooooooooooo",
"ooooooooooo..........oooooooooooooooooooooooooooo..............................oooooooooooooooooooooooooooo..........ooooooooooo",
"ooooooooooo.........oooooooooooooooooooooooooooo..............................ooooooooooooooooooooooooooooo..........ooooooooooo",
"oooooooooo..........ooooooooooooooooooooooooooo...............................oooooooooooooooooooooooooooooo.........ooooooooooo",
"oooooooooo..........oooooooooooooooooooooooooo................................oooooooooooooooooooooooooooooo..........oooooooooo",
"oooooooooo..........ooooooooooooooooooooooooo................................ooooooooooooooooooooooooooooooo..........oooooooooo",
"oooooooooo.........ooooooooooooooooooooooooo.................................oooooooooooooooooooooooooooooooo.........oooooooooo",
"oooooooooo.........oooooooooooooooooooooooo..................................oooooooooooooooooooooooooooooooo.........oooooooooo",
"ooooooooo..........ooooooooooooooooooooooo...........................................................oooooooo.........oooooooooo",
"ooooooooo..........oooooooooooooooooooooo...........................................................ooooooooo.........oooooooooo",
"ooooooooo..........ooooooooooooooooooooo...........................................................oooooooooo..........ooooooooo",
"ooooooooo..........oooooooooooooooooooo...........................................................ooooooooooo..........ooooooooo",
"ooooooooo..........ooooooooooooooooooo...........................................................oooooooooooo..........ooooooooo",
"ooooooooo..........oooooooooooooooooo...........................................................ooooooooooooo..........ooooooooo",
"ooooooooo.........oooooooooooooooooo...........................................................ooooooooooooooo.........ooooooooo",
"ooooooooo.........ooooooooooooooooo...........................................................oooooooooooooooo.........ooooooooo",
"ooooooooo.........oooooooooooooooo...........................................................ooooooooooooooooo.........ooooooooo",
"ooooooooo.........ooooooooooooooo...........................................................oooooooooooooooooo.........ooooooooo",
"ooooooooo..........ooooooooooooo...........................................................oooooooooooooooooo..........ooooooooo",
"ooooooooo..........oooooooooooo...........................................................ooooooooooooooooooo..........ooooooooo",
"ooooooooo..........ooooooooooo...........................................................oooooooooooooooooooo..........ooooooooo",
"ooooooooo..........oooooooooo...........................................................ooooooooooooooooooooo.........oooooooooo",
"ooooooooo..........ooooooooo...........................................................oooooooooooooooooooooo.........oooooooooo",
"ooooooooo..........oooooooo...........................................................ooooooooooooooooooooooo.........oooooooooo",
"oooooooooo.........oooooooooooooooooooooooooooooooo..................................oooooooooooooooooooooooo.........oooooooooo",
"oooooooooo.........oooooooooooooooooooooooooooooooo.................................ooooooooooooooooooooooooo.........oooooooooo",
"oooooooooo..........ooooooooooooooooooooooooooooooo................................ooooooooooooooooooooooooo..........oooooooooo",
"oooooooooo..........oooooooooooooooooooooooooooooo................................oooooooooooooooooooooooooo..........oooooooooo",
"oooooooooo..........oooooooooooooooooooooooooooooo...............................ooooooooooooooooooooooooooo.........ooooooooooo",
"ooooooooooo.........ooooooooooooooooooooooooooooo...............................oooooooooooooooooooooooooooo.........ooooooooooo",
"ooooooooooo..........oooooooooooooooooooooooooooo..............................oooooooooooooooooooooooooooo..........ooooooooooo",
"ooooooooooo..........oooooooooooooooooooooooooooo.............................ooooooooooooooooooooooooooooo..........ooooooooooo",
"ooooooooooo...........oooooooooooooooooooooooooo.............................ooooooooooooooooooooooooooooo..........oooooooooooo",
"oooooooooooo..........oooooooooooooooooooooooooo............................oooooooooooooooooooooooooooooo..........oooooooooooo",
"oooooooooooo..........oooooooooooooooooooooooooo...........................ooooooooooooooooooooooooooooooo..........oooooooooooo",
"oooooooooooo...........oooooooooooooooooooooooo...........................ooooooooooooooooooooooooooooooo..........ooooooooooooo",
"ooooooooooooo..........oooooooooooooooooooooooo..........................oooooooooooooooooooooooooooooooo..........ooooooooooooo",
"ooooooooooooo...........oooooooooooooooooooooo..........................oooooooooooooooooooooooooooooooo..........oooooooooooooo",
"oooooooooooooo..........oooooooooooooooooooooo.........................ooooooooooooooooooooooooooooooooo..........oooooooooooooo",
"oooooooooooooo...........ooooooooooooooooooooo.......................oooooooooooooooooooooooooooooooooo...........oooooooooooooo",
"ooooooooooooooo..........Xooooooooooooooooooo.......................oooooooooooooooooooooooooooooooooo...........ooooooooooooooo",
"ooooooooooooooo...........ooooooooooooooooooo......................ooooooooooooooooooooooooooooooooooo...........ooooooooooooooo",
"oooooooooooooooo...........oooooooooooooooooo.....................ooooooooooooooooooooooooooooooooooo...........oooooooooooooooo",
"oooooooooooooooo............oooooooooooooooo.....................ooooooooooooooooooooooooooooooooooo...........ooooooooooooooooo",
"ooooooooooooooooo...........oooooooooooooooo....................ooooooooooooooooooooooooooooooooooo............ooooooooooooooooo",
"oooooooooooooooooo...........oooooooooooooo....................oooooooooooooooooooooooooooooooooooo...........oooooooooooooooooo",
"oooooooooooooooooo............ooooooooooooo...................oooooooooooooooooooooooooooooooooooo............oooooooooooooooooo",
"ooooooooooooooooooo............oooooooooooo..................oooooooooooooooooooooooooooooooooooo............ooooooooooooooooooo",
"oooooooooooooooooooo............oooooooooo..................oooooooooooooooooooooooooooooooooooo............oooooooooooooooooooo",
"oooooooooooooooooooo.............ooooooooo.................oooooooooooooooooooooooooooooooooooo............ooooooooooooooooooooo",
"ooooooooooooooooooooo.............ooooooo.................oooooooooooooooooooooooooooooooooooo.............ooooooooooooooooooooo",
"oooooooooooooooooooooo............ooooooo................ooooooooooooooooooooooooooooooooooo..............oooooooooooooooooooooo",
"ooooooooooooooooooooooo...........ooooooo...............ooooooooooooooooooooooooooooooooooo..............ooooooooooooooooooooooo",
"oooooooooooooooooooooooo.........ooooooo...............ooooooooooooooooooooooooooooooooooo..............oooooooooooooooooooooooo",
"ooooooooooooooooooooooooo........ooooooo..............oooooooooooooooooooooooooooooooooo...............ooooooooooooooooooooooooo",
"oooooooooooooooooooooooooo......oooooooo.............oooooooooooooooooooooooooooooooooo...............oooooooooooooooooooooooooo",
"ooooooooooooooooooooooooooo.....ooooooo.............ooooooooooooooooooooooooooooooooo................ooooooooooooooooooooooooooo",
"oooooooooooooooooooooooooooo....ooooooo............oooooooooooooooooooooooooooooooo.................oooooooooooooooooooooooooooo",
"ooooooooooooooooooooooooooooo..ooooooo............oooooooooooooooooooooooooooooo...................ooooooooooooooooooooooooooooo",
"oooooooooooooooooooooooooooooooooooooo...........oooooooooooooooooooooooooooo....................ooooooooooooooooooooooooooooooo",
"oooooooooooooooooooooooooooooooooooooo..........oooooooooooooooooooooooooo......................oooooooooooooooooooooooooooooooo",
"ooooooooooooooooooooooooooooooooooooo..........ooooooooo.......ooo.............................ooooooooooooooooooooooooooooooooo",
"ooooooooooooooooooooooooooooooooooooo.........ooooooooo......................................ooooooooooooooooooooooooooooooooooo",
"ooooooooooooooooooooooooooooooooooooo........ooooooooo......................................oooooooooooooooooooooooooooooooooooo",
"oooooooooooooooooooooooooooooooooooo........ooooooooo.....................................oooooooooooooooooooooooooooooooooooooo",
"oooooooooooooooooooooooooooooooooooo.......ooooooooo....................................oooooooooooooooooooooooooooooooooooooooo",
"ooooooooooooooooooooooooooooooooooo.......ooooooooo...................................oooooooooooooooooooooooooooooooooooooooooo",
"ooooooooooooooooooooooooooooooooooo......ooooooooo.................................ooooooooooooooooooooooooooooooooooooooooooooo",
"ooooooooooooooooooooooooooooooooooo.....ooooooooo...............................oooooooooooooooooooooooooooooooooooooooooooooooo",
"oooooooooooooooooooooooooooooooooo.....oooooooooooo..........................ooooooooooooooooooooooooooooooooooooooooooooooooooo",
"oooooooooooooooooooooooooooooooooo....oooooooooooooooooo...............ooooooooooooooooooooooooooooooooooooooooooooooooooooooooo",
"oooooooooooooooooooooooooooooooooo...ooooooooooooooooooooooooooooooooooooooooooooooooooooooooooooooooooooooooooooooooooooooooooo",
"ooooooooooooooooooooooooooooooooo..ooooooooooooooooooooooooooooooooooooooooooooooooooooooooooooooooooooooooooooooooooooooooooooo",
"ooooooooooooooooooooooooooooooooo.oooooooooooooooooooooooooooooooooooooooooooooooooooooooooooooooooooooooooooooooooooooooooooooo",
"oooooooooooooooooooooooooooooooo.ooooooooooooooooooooooooooooooooooooooooooooooooooooooooooooooooooooooooooooooooooooooooooooooo",
"oooooooooooooooooooooooooooooooooooooooooooooooooooooooooooooooooooooooooooooooooooooooooooooooooooooooooooooooooooooooooooooooo",
"oooooooooooooooooooooooooooooooooooooooooooooooooooooooooooooooooooooooooooooooooooooooooooooooooooooooooooooooooooooooooooooooo",
"oooooooooooooooooooooooooooooooooooooooooooooooooooooooooooooooooooooooooooooooooooooooooooooooooooooooooooooooooooooooooooooooo",
"oooooooooooooooooooooooooooooooooooooooooooooooooooooooooooooooooooooooooooooooooooooooooooooooooooooooooooooooooooooooooooooooo",
"oooooooooooooooooooooooooooooooooooooooooooooooooooooooooooooooooooooooooooooooooooooooooooooooooooooooooooooooooooooooooooooooo"
};
