/* XPM */
static char *db03d435ffed4b16b71a85ca750a61cb[] = {
/* columns rows colors chars-per-pixel */
"64 64 2 1 ",
"  c #FFE115",
". c None",
/* pixels */
"................................................................",
"................................................................",
"................................................................",
".............................................. .................",
"............................................. ..................",
".........................             ......  ..................",
"......................                .....   ..................",
"....................                 .....   ...................",
"..................                  .....    ...................",
"................            ............     ...................",
"...............         ...............     .... ...............",
"..............        ................      ....  ..............",
".............       .................       ...    .............",
"............       .................       ....     ............",
"...........      ..................        ....      ...........",
"..........      ..................         .....      ..........",
".........      ..................         .......      .........",
".........     ..................          .......      .........",
"........      .................           ........      ........",
".......      .................           ..........     ........",
".......     .................            ...........     .......",
".......     ................             ...........     .......",
"......     ................             .............     ......",
"......     ...............              .............     ......",
"......    ...............              ..............     ......",
".....     ..............               ...............     .....",
".....     .............                ...............     .....",
".....     ............                 ...............     .....",
".....    ............                             ....     .....",
".....    ...........                             ......    .....",
".....    ..........                             .......    .....",
"....     .........                             ........    .....",
"....     ........                             .........    .....",
".....    .......                             ..........    .....",
".....    ......                             ...........    .....",
".....    .....                             ............    .....",
".....     ...............                 ............     .....",
".....     ...............                .............     .....",
".....     ...............               ..............     .....",
"......    ..............               ..............     ......",
"......     .............              ...............     ......",
"......     .............             ................     ......",
".......     ...........             ................     .......",
".......     ...........            .................     .......",
".......      ..........           .................     ........",
"........      ........           .................      ........",
".........     ........          ..................     .........",
".........      ......          ..................      .........",
"..........      .....         ..................      ..........",
"...........      ....        ..................      ...........",
"............     ...        .................       ............",
".............   ....       .................       .............",
"..............  ....      ................        ..............",
"...................      ..............          ...............",
"...................     ............            ................",
"..................     ....                   ..................",
"..................    ....                  ....................",
"..................   ....                 ......................",
".................   .....              .........................",
".................  ............  ...............................",
"................. ..............................................",
"................................................................",
"................................................................",
"................................................................"
};
