/* XPM */
static char *_e2b9215ef844423a9cae1629e24f729[] = {
/* columns rows colors chars-per-pixel */
"16 16 2 1 ",
"  c #FFE115",
". c None",
/* pixels */
"................",
"......   .......",
"....   ... .....",
"...  ....  . ...",
"..  ....  ..  ..",
".. ....   ... ..",
".  ...    ...  .",
". ...       .. .",
". ..       ... .",
".  ...    ...  .",
".. ...   .... ..",
"..  .   ....  ..",
"... .  ....  ...",
"..... ...   ....",
".......   ......",
"................"
};
