<svg height='200' width='200'  fill="#ffe115" xmlns="http://www.w3.org/2000/svg" xmlns:xlink="http://www.w3.org/1999/xlink" version="1.1" x="0px" y="0px" viewBox="0 0 50 50" enable-background="new 0 0 50 50" xml:space="preserve"><polygon points="37,1.5 10.1,28.2 20.1,28.2 12.4,48.5 39.9,21.8 29.9,21.8 "></polygon><path d="M25,7.2c0.8,0,1.6,0.1,2.4,0.2l3.1-3.1c-1.8-0.5-3.6-0.7-5.5-0.7C13.1,3.5,3.5,13.1,3.5,25c0,7,3.3,13.2,8.5,17.1l1.4-3.6  l0,0C9.6,35.2,7.2,30.4,7.2,25C7.2,15.2,15.2,7.2,25,7.2z"></path><path d="M37.7,7.7l-1.3,3.7l0,0c3.9,3.3,6.4,8.2,6.4,13.6c0,9.8-8,17.8-17.8,17.8c-0.9,0-1.9-0.1-2.8-0.2l0,0l-3.2,3.1  c1.9,0.5,3.8,0.8,5.9,0.8c11.9,0,21.5-9.6,21.5-21.5C46.5,17.9,43,11.6,37.7,7.7z"></path></svg>
